<svg xmlns="http://www.w3.org/2000/svg" width="22" height="15" viewBox="0 0 22 15">
  <path fill="#535353" d="M20.8648315,6.23931624 L12.9161135,0.170940171 C12.7451734,0.0427350427 12.5742332,0 12.403293,0 C11.9759426,0 11.5485922,0.341880342 11.5485922,0.854700855 L11.5485922,4.27350427 C11.1212417,4.27350427 10.6938913,4.27350427 9.41184003,4.27350427 C3.25799387,4.27350427 0.693891309,8.11965812 0.0101306257,14.0598291 C-0.0753394597,14.6153846 0.39474601,15 0.86483148,15 C1.12124174,15 1.37765199,14.8717949 1.59132721,14.6153846 C3.64260926,11.7094017 5.86483148,10.2564103 9.83919045,10.2564103 C10.6511563,10.2564103 11.1639768,10.2564103 11.5913272,10.2564103 L11.5913272,13.6324786 C11.5913272,14.1452991 12.0186776,14.4871795 12.4460281,14.4871795 C12.6169682,14.4871795 12.7879084,14.4444444 12.9588486,14.3162393 L20.9075665,8.24786325 C21.5485922,7.77777778 21.5485922,6.75213675 20.8648315,6.23931624 Z"/>
</svg>
